<?xml version="1.0" encoding="UTF-8"?>
<svg id="Layer_2" data-name="Layer 2" xmlns="http://www.w3.org/2000/svg" viewBox="0 0 59.55 57.26">
  <defs>
    <style>
      .cls-1 {
        fill: #fff;
      }
    </style>
  </defs>
  <g id="Layer_1-2" data-name="Layer 1">
    <path d="M12.56,51.88c0,1.85.8,4.5-1.67,5.14-1.02.26-5.95.27-7.07.1-1.63-.25-1.94-1.28-2.06-2.72-.27-3.24-.4-15.06.48-17.69.51-1.53,1.67-3.08,2.4-4.53-.04-.75-4.14.18-4.54-2.16-.92-5.47,4.63-2.75,7.9-3.56,2.15-2.81,3.72-10.03,7.3-11.12,3.08-.94,14.8-.71,18.49-.47.61.04,1.18.26,1.79.25.25.24-1.64,2.07-1.91,2.27-.35.26-.62.56-1.1.58-5.02.37-10.64-.45-15.58,0-1.79.16-1.92,1.16-2.79,2.48l-4.65,9.23.14.61c.17.21.29-.13.36-.13h15.83c1.76,2.69,2.89,4.79,6.46,5.03,4.59.3,6.33-1.91,9.12-5.03h5.75s.76.39.6-.35c-.11-.51-2.08-2.28-2.17-3.59-.07-.97.9-2.77,1.83-2.04.59.46.78,2.09,1.71,2.36,1.66.48,6.1-.53,7.28.39.88.69,1,2.69.51,3.65-.79,1.58-3.59,1.23-5.09,1.26.39,1.2,1.78,1.83,2.45,2.93,2.6,4.3.43,15.14,1.13,20.33-.21,1.03-.9,1.91-2.01,2.06-1.19.16-6.04.16-7.15-.07-.7-.14-1.85-1-1.85-1.74v-3.46H12.56ZM51.82,36.9c-.35-.34-1.25-.32-1.73-.3-2.92.13-6.46,1.34-9.47,1.57-1.02.49-1.38,4.43.33,4.65,2.01.26,7.28.19,9.37,0,.8-.07,1.73-.19,2.09-1.03.45-1.04.25-4.08-.6-4.89ZM6.01,36.89c-.21.06-.79.59-.9.77-.41.72-.6,4.74.5,5.26,3.26-.09,7.52.55,10.68.14,1.98-.26,1.77-4.5.29-5.09-2.18-.17-4.37-.68-6.54-.89-.94-.09-3.27-.41-4.02-.19ZM21.27,42.49c1.06,1.16,4.51.14,6.05.78,2.33-.36,5.44.11,7.65-.24,1.86-.29,1.86-3.26,0-3.55-3.71-.58-8.81.39-12.68,0-1.39.22-1.99,1.96-1.02,3.01Z"/>
    <path d="M57.92,5.84c1.26-.71,1.68,2.32,1.62,3.14-.29,3.93-3.47,7.88-7.54,8.27-1.14.11-2.34-.18-3.47.12-3.26,3.91-6.66,7.68-10.07,11.47-.41.45-.65,1.07-1.08,1.55-1.38,1.53-2.87,2.43-5.02,2.12-2.26-.32-3.45-3.46-2.88-5.45.45-1.59,5.31-6.06,6.7-7.66,2.24-2.58,4.7-5.42,6.54-8.2C40.46,5.89,45.71-.63,51.29.05c2.58.32-1.88,4.08-2.52,4.91-.72.93-.96,1.59-.67,2.81.13.56,2.9,3.09,3.47,3.22,2.76.64,4.7-3.43,6.35-5.15Z"/>
    <path class="cls-1" d="M6.01,36.89c.75-.22,3.08.1,4.02.19,2.17.22,4.35.72,6.54.89,1.49.58,1.69,4.83-.29,5.09-3.16.41-7.42-.23-10.68-.14-1.1-.52-.9-4.54-.5-5.26.11-.19.69-.71.9-.77Z"/>
    <path class="cls-1" d="M51.82,36.9c.85.81,1.04,3.86.6,4.89-.36.84-1.29.95-2.09,1.03-2.09.19-7.36.26-9.37,0-1.71-.22-1.36-4.16-.33-4.65,3.01-.23,6.54-1.43,9.47-1.57.48-.02,1.38-.04,1.73.3Z"/>
    <path class="cls-1" d="M21.27,42.49c-.97-1.06-.37-2.8,1.02-3.01,3.87.39,8.96-.58,12.68,0,1.86.29,1.86,3.26,0,3.55-2.21.35-5.32-.12-7.65.24-1.53-.63-4.98.38-6.05-.78Z"/>
  </g>
</svg>